<mxfile host="app.diagrams.net" modified="2024-05-29T10:38:07.644Z" agent="Mozilla/5.0 (X11; Ubuntu; Linux x86_64; rv:125.0) Gecko/20100101 Firefox/125.0" etag="IM4XGuBOiHZV4xmj4Sep" version="24.4.9" type="github">
  <diagram name="Pagina-1" id="b1b_KA6KlfcaUS7zXWw2">
    <mxGraphModel dx="1959" dy="1408" grid="0" gridSize="10" guides="1" tooltips="1" connect="1" arrows="1" fold="1" page="1" pageScale="1" pageWidth="827" pageHeight="1169" math="0" shadow="0">
      <root>
        <mxCell id="0" />
        <mxCell id="1" parent="0" />
        <mxCell id="djfGe0gmtvUCP7Zhn8_7-2" value="" style="rounded=0;whiteSpace=wrap;html=1;" parent="1" vertex="1">
          <mxGeometry x="-1" y="80" width="460" height="190" as="geometry" />
        </mxCell>
        <mxCell id="djfGe0gmtvUCP7Zhn8_7-4" value="Log" style="rounded=0;whiteSpace=wrap;html=1;fillColor=#60a917;strokeColor=#2D7600;fontColor=#ffffff;" parent="1" vertex="1">
          <mxGeometry x="-1" y="57" width="40" height="23" as="geometry" />
        </mxCell>
        <mxCell id="djfGe0gmtvUCP7Zhn8_7-5" value="AnomalieOperazioni&lt;div&gt;&lt;br&gt;&lt;/div&gt;" style="swimlane;fontStyle=1;align=left;verticalAlign=top;childLayout=stackLayout;horizontal=1;startSize=25;horizontalStack=0;resizeParent=1;resizeParentMax=0;resizeLast=0;collapsible=1;marginBottom=0;whiteSpace=wrap;html=1;rounded=0;fillColor=#60a917;fontColor=#ffffff;strokeColor=#2D7600;perimeterSpacing=3;" parent="1" vertex="1">
          <mxGeometry x="9" y="90" width="170" height="69" as="geometry">
            <mxRectangle x="70" y="100" width="100" height="30" as="alternateBounds" />
          </mxGeometry>
        </mxCell>
        <mxCell id="djfGe0gmtvUCP7Zhn8_7-6" value="" style="text;strokeColor=#2D7600;fillColor=#60a917;align=left;verticalAlign=top;spacingLeft=4;spacingRight=4;overflow=hidden;rotatable=0;points=[[0,0.5],[1,0.5]];portConstraint=eastwest;whiteSpace=wrap;html=1;fontColor=#ffffff;" parent="djfGe0gmtvUCP7Zhn8_7-5" vertex="1">
          <mxGeometry y="25" width="170" height="21" as="geometry" />
        </mxCell>
        <mxCell id="djfGe0gmtvUCP7Zhn8_7-7" value="" style="line;strokeWidth=1;fillColor=none;align=left;verticalAlign=middle;spacingTop=-1;spacingLeft=3;spacingRight=3;rotatable=0;labelPosition=right;points=[];portConstraint=eastwest;strokeColor=inherit;rounded=1;" parent="djfGe0gmtvUCP7Zhn8_7-5" vertex="1">
          <mxGeometry y="46" width="170" as="geometry" />
        </mxCell>
        <mxCell id="djfGe0gmtvUCP7Zhn8_7-8" value="+ scanOperazioni(Date)" style="text;strokeColor=#2D7600;fillColor=#60a917;align=left;verticalAlign=top;spacingLeft=4;spacingRight=4;overflow=hidden;rotatable=0;points=[[0,0.5],[1,0.5]];portConstraint=eastwest;whiteSpace=wrap;html=1;fontColor=#ffffff;" parent="djfGe0gmtvUCP7Zhn8_7-5" vertex="1">
          <mxGeometry y="46" width="170" height="23" as="geometry" />
        </mxCell>
        <mxCell id="djfGe0gmtvUCP7Zhn8_7-9" value="&lt;div style=&quot;&quot;&gt;&lt;span style=&quot;background-color: initial;&quot;&gt;AnomalieMessaggi&lt;/span&gt;&lt;/div&gt;&lt;div&gt;&lt;br&gt;&lt;/div&gt;" style="swimlane;fontStyle=1;align=left;verticalAlign=top;childLayout=stackLayout;horizontal=1;startSize=22;horizontalStack=0;resizeParent=1;resizeParentMax=0;resizeLast=0;collapsible=1;marginBottom=0;whiteSpace=wrap;html=1;rounded=0;fillColor=#60a917;fontColor=#ffffff;strokeColor=#2D7600;" parent="1" vertex="1">
          <mxGeometry x="9" y="170" width="160" height="63" as="geometry" />
        </mxCell>
        <mxCell id="djfGe0gmtvUCP7Zhn8_7-10" value="&lt;div&gt;&lt;br&gt;&lt;/div&gt;" style="text;strokeColor=#2D7600;fillColor=#60a917;align=left;verticalAlign=top;spacingLeft=4;spacingRight=4;overflow=hidden;rotatable=0;points=[[0,0.5],[1,0.5]];portConstraint=eastwest;whiteSpace=wrap;html=1;fontColor=#ffffff;" parent="djfGe0gmtvUCP7Zhn8_7-9" vertex="1">
          <mxGeometry y="22" width="160" height="19" as="geometry" />
        </mxCell>
        <mxCell id="djfGe0gmtvUCP7Zhn8_7-12" value="+ scanMessaggi(Date)" style="text;strokeColor=#2D7600;fillColor=#60a917;align=left;verticalAlign=top;spacingLeft=4;spacingRight=4;overflow=hidden;rotatable=0;points=[[0,0.5],[1,0.5]];portConstraint=eastwest;whiteSpace=wrap;html=1;fontColor=#ffffff;" parent="djfGe0gmtvUCP7Zhn8_7-9" vertex="1">
          <mxGeometry y="41" width="160" height="22" as="geometry" />
        </mxCell>
        <mxCell id="djfGe0gmtvUCP7Zhn8_7-13" value="LogController&lt;div&gt;&lt;br&gt;&lt;/div&gt;" style="swimlane;fontStyle=1;align=left;verticalAlign=top;childLayout=stackLayout;horizontal=1;startSize=26;horizontalStack=0;resizeParent=1;resizeParentMax=0;resizeLast=0;collapsible=1;marginBottom=0;whiteSpace=wrap;html=1;rounded=0;fillColor=#60a917;fontColor=#ffffff;strokeColor=#2D7600;" parent="1" vertex="1">
          <mxGeometry x="239" y="115" width="200" height="125" as="geometry" />
        </mxCell>
        <mxCell id="djfGe0gmtvUCP7Zhn8_7-14" value="&lt;div&gt;&lt;br&gt;&lt;/div&gt;&lt;div&gt;&lt;br&gt;&lt;/div&gt;" style="text;strokeColor=#2D7600;fillColor=#60a917;align=left;verticalAlign=top;spacingLeft=4;spacingRight=4;overflow=hidden;rotatable=0;points=[[0,0.5],[1,0.5]];portConstraint=eastwest;whiteSpace=wrap;html=1;fontColor=#ffffff;" parent="djfGe0gmtvUCP7Zhn8_7-13" vertex="1">
          <mxGeometry y="26" width="200" height="19" as="geometry" />
        </mxCell>
        <mxCell id="djfGe0gmtvUCP7Zhn8_7-16" value="+ getEntry(DateTime,DateTime)&amp;nbsp;&amp;nbsp;&lt;div&gt;+ getEntry(Date)&lt;/div&gt;&lt;div&gt;+ getAnomalieOperazioni(Date)&lt;/div&gt;&lt;div&gt;+ getAnomalieMessaggi(Date)&lt;/div&gt;&lt;div&gt;+ aggiungiLog(Log)&lt;br&gt;&lt;/div&gt;&lt;div&gt;&lt;br&gt;&lt;/div&gt;" style="text;strokeColor=#2D7600;fillColor=#60a917;align=left;verticalAlign=top;spacingLeft=4;spacingRight=4;overflow=hidden;rotatable=0;points=[[0,0.5],[1,0.5]];portConstraint=eastwest;whiteSpace=wrap;html=1;fontColor=#ffffff;" parent="djfGe0gmtvUCP7Zhn8_7-13" vertex="1">
          <mxGeometry y="45" width="200" height="80" as="geometry" />
        </mxCell>
        <mxCell id="djfGe0gmtvUCP7Zhn8_7-17" value="" style="endArrow=open;endFill=1;endSize=12;html=1;rounded=1;entryX=1.011;entryY=0.155;entryDx=0;entryDy=0;entryPerimeter=0;fillColor=#1ba1e2;strokeColor=#000000;" parent="1" target="djfGe0gmtvUCP7Zhn8_7-6" edge="1">
          <mxGeometry width="160" relative="1" as="geometry">
            <mxPoint x="239" y="175" as="sourcePoint" />
            <mxPoint x="309" y="140" as="targetPoint" />
          </mxGeometry>
        </mxCell>
        <mxCell id="djfGe0gmtvUCP7Zhn8_7-18" value="" style="endArrow=open;endFill=1;endSize=12;html=1;rounded=1;entryX=1;entryY=0.5;entryDx=0;entryDy=0;exitX=0;exitY=0.5;exitDx=0;exitDy=0;fillColor=#1ba1e2;strokeColor=#000000;" parent="1" source="djfGe0gmtvUCP7Zhn8_7-13" target="djfGe0gmtvUCP7Zhn8_7-9" edge="1">
          <mxGeometry width="160" relative="1" as="geometry">
            <mxPoint x="249" y="155" as="sourcePoint" />
            <mxPoint x="191" y="122" as="targetPoint" />
          </mxGeometry>
        </mxCell>
        <mxCell id="djfGe0gmtvUCP7Zhn8_7-20" value="" style="verticalLabelPosition=bottom;verticalAlign=top;html=1;shape=mxgraph.basic.rect;fillColor2=none;strokeWidth=1;size=20;indent=5;rounded=1;" parent="1" vertex="1">
          <mxGeometry x="599" y="60" width="230" height="280" as="geometry" />
        </mxCell>
        <mxCell id="djfGe0gmtvUCP7Zhn8_7-23" value="InterfacciaLog" style="rounded=0;whiteSpace=wrap;html=1;fillColor=#fa6800;fontColor=#ffffff;strokeColor=#c64600;" parent="1" vertex="1">
          <mxGeometry x="599" y="40" width="100" height="20" as="geometry" />
        </mxCell>
        <mxCell id="djfGe0gmtvUCP7Zhn8_7-29" value="&lt;div&gt;&lt;font color=&quot;#ffffff&quot;&gt;ViewLog&lt;/font&gt;&lt;/div&gt;" style="swimlane;fontStyle=1;align=left;verticalAlign=top;childLayout=stackLayout;horizontal=1;startSize=22;horizontalStack=0;resizeParent=1;resizeParentMax=0;resizeLast=0;collapsible=1;marginBottom=0;whiteSpace=wrap;html=1;rounded=0;fillColor=#fa6800;fontColor=#000000;strokeColor=#c64600;perimeterSpacing=3;" parent="1" vertex="1">
          <mxGeometry x="629" y="70" width="170" height="62" as="geometry">
            <mxRectangle x="70" y="100" width="100" height="30" as="alternateBounds" />
          </mxGeometry>
        </mxCell>
        <mxCell id="djfGe0gmtvUCP7Zhn8_7-30" value="" style="text;strokeColor=#c64600;fillColor=#fa6800;align=left;verticalAlign=top;spacingLeft=4;spacingRight=4;overflow=hidden;rotatable=0;points=[[0,0.5],[1,0.5]];portConstraint=eastwest;whiteSpace=wrap;html=1;fontColor=#000000;" parent="djfGe0gmtvUCP7Zhn8_7-29" vertex="1">
          <mxGeometry y="22" width="170" height="20" as="geometry" />
        </mxCell>
        <mxCell id="djfGe0gmtvUCP7Zhn8_7-31" value="" style="line;strokeWidth=1;fillColor=none;align=left;verticalAlign=middle;spacingTop=-1;spacingLeft=3;spacingRight=3;rotatable=0;labelPosition=right;points=[];portConstraint=eastwest;strokeColor=inherit;rounded=1;" parent="djfGe0gmtvUCP7Zhn8_7-29" vertex="1">
          <mxGeometry y="42" width="170" as="geometry" />
        </mxCell>
        <mxCell id="djfGe0gmtvUCP7Zhn8_7-32" value="&lt;div&gt;&lt;br&gt;&lt;/div&gt;&lt;div&gt;&lt;br&gt;&lt;/div&gt;" style="text;strokeColor=#c64600;fillColor=#fa6800;align=left;verticalAlign=top;spacingLeft=4;spacingRight=4;overflow=hidden;rotatable=0;points=[[0,0.5],[1,0.5]];portConstraint=eastwest;whiteSpace=wrap;html=1;fontColor=#000000;" parent="djfGe0gmtvUCP7Zhn8_7-29" vertex="1">
          <mxGeometry y="42" width="170" height="20" as="geometry" />
        </mxCell>
        <mxCell id="djfGe0gmtvUCP7Zhn8_7-41" value="&amp;lt;&amp;lt;use&amp;gt;&amp;gt;" style="html=1;verticalAlign=bottom;endArrow=open;dashed=1;endSize=8;curved=0;rounded=0;exitX=0;exitY=0.5;exitDx=0;exitDy=0;fillColor=#1ba1e2;strokeColor=#000000;" parent="1" target="djfGe0gmtvUCP7Zhn8_7-16" edge="1">
          <mxGeometry x="-0.0021" relative="1" as="geometry">
            <mxPoint x="626.0000000000002" y="299" as="sourcePoint" />
            <mxPoint x="619" y="220" as="targetPoint" />
            <Array as="points">
              <mxPoint x="569" y="300" />
              <mxPoint x="509" y="300" />
              <mxPoint x="419" y="300" />
            </Array>
            <mxPoint as="offset" />
          </mxGeometry>
        </mxCell>
        <mxCell id="djfGe0gmtvUCP7Zhn8_7-43" value="&amp;lt;&amp;lt;use&amp;gt;&amp;gt;" style="html=1;verticalAlign=bottom;endArrow=open;dashed=1;endSize=8;curved=0;rounded=0;entryX=1;entryY=0.5;entryDx=0;entryDy=0;exitX=-0.001;exitY=-0.168;exitDx=0;exitDy=0;exitPerimeter=0;fillColor=#1ba1e2;strokeColor=#000000;" parent="1" target="djfGe0gmtvUCP7Zhn8_7-13" edge="1">
          <mxGeometry relative="1" as="geometry">
            <mxPoint x="628.8300000000002" y="199.96799999999996" as="sourcePoint" />
            <mxPoint x="499" y="240" as="targetPoint" />
          </mxGeometry>
        </mxCell>
        <mxCell id="djfGe0gmtvUCP7Zhn8_7-44" value="&amp;lt;&amp;lt;use&amp;gt;&amp;gt;" style="html=1;verticalAlign=bottom;endArrow=open;dashed=1;endSize=8;curved=0;rounded=0;exitX=0;exitY=0.5;exitDx=0;exitDy=0;entryX=0.5;entryY=0;entryDx=0;entryDy=0;fillColor=#1ba1e2;strokeColor=#000000;" parent="1" source="djfGe0gmtvUCP7Zhn8_7-29" target="djfGe0gmtvUCP7Zhn8_7-13" edge="1">
          <mxGeometry relative="1" as="geometry">
            <mxPoint x="579" y="150" as="sourcePoint" />
            <mxPoint x="399" y="48.81481029369213" as="targetPoint" />
            <Array as="points">
              <mxPoint x="579" y="49" />
              <mxPoint x="509" y="50" />
              <mxPoint x="389" y="50" />
            </Array>
          </mxGeometry>
        </mxCell>
        <mxCell id="djfGe0gmtvUCP7Zhn8_7-46" value="" style="endArrow=open;endFill=1;endSize=12;html=1;rounded=1;entryX=0.501;entryY=1.011;entryDx=0;entryDy=0;entryPerimeter=0;fillColor=#1ba1e2;strokeColor=#FFCCE6;" parent="1" target="djfGe0gmtvUCP7Zhn8_7-32" edge="1">
          <mxGeometry width="160" relative="1" as="geometry">
            <mxPoint x="714" y="170" as="sourcePoint" />
            <mxPoint x="709" y="128" as="targetPoint" />
            <Array as="points">
              <mxPoint x="714" y="140" />
            </Array>
          </mxGeometry>
        </mxCell>
        <mxCell id="HBRwpcBnEcIffdZuwEBY-10" value="" style="edgeStyle=none;curved=1;rounded=0;orthogonalLoop=1;jettySize=auto;html=1;fontSize=12;startSize=8;endSize=8;" parent="1" target="djfGe0gmtvUCP7Zhn8_7-32" edge="1">
          <mxGeometry relative="1" as="geometry">
            <mxPoint x="714" y="171" as="sourcePoint" />
          </mxGeometry>
        </mxCell>
        <mxCell id="HBRwpcBnEcIffdZuwEBY-11" value="&lt;div&gt;&lt;font color=&quot;#ffffff&quot;&gt;HomeLog&lt;/font&gt;&lt;/div&gt;" style="swimlane;fontStyle=1;align=left;verticalAlign=top;childLayout=stackLayout;horizontal=1;startSize=22;horizontalStack=0;resizeParent=1;resizeParentMax=0;resizeLast=0;collapsible=1;marginBottom=0;whiteSpace=wrap;html=1;rounded=0;fillColor=#fa6800;fontColor=#000000;strokeColor=#c64600;perimeterSpacing=3;" parent="1" vertex="1">
          <mxGeometry x="629" y="170" width="170" height="62" as="geometry">
            <mxRectangle x="70" y="100" width="100" height="30" as="alternateBounds" />
          </mxGeometry>
        </mxCell>
        <mxCell id="HBRwpcBnEcIffdZuwEBY-12" value="" style="text;strokeColor=#c64600;fillColor=#fa6800;align=left;verticalAlign=top;spacingLeft=4;spacingRight=4;overflow=hidden;rotatable=0;points=[[0,0.5],[1,0.5]];portConstraint=eastwest;whiteSpace=wrap;html=1;fontColor=#000000;" parent="HBRwpcBnEcIffdZuwEBY-11" vertex="1">
          <mxGeometry y="22" width="170" height="20" as="geometry" />
        </mxCell>
        <mxCell id="HBRwpcBnEcIffdZuwEBY-13" value="" style="line;strokeWidth=1;fillColor=none;align=left;verticalAlign=middle;spacingTop=-1;spacingLeft=3;spacingRight=3;rotatable=0;labelPosition=right;points=[];portConstraint=eastwest;strokeColor=inherit;rounded=1;" parent="HBRwpcBnEcIffdZuwEBY-11" vertex="1">
          <mxGeometry y="42" width="170" as="geometry" />
        </mxCell>
        <mxCell id="HBRwpcBnEcIffdZuwEBY-14" value="&lt;div&gt;&lt;br&gt;&lt;/div&gt;&lt;div&gt;&lt;br&gt;&lt;/div&gt;" style="text;strokeColor=#c64600;fillColor=#fa6800;align=left;verticalAlign=top;spacingLeft=4;spacingRight=4;overflow=hidden;rotatable=0;points=[[0,0.5],[1,0.5]];portConstraint=eastwest;whiteSpace=wrap;html=1;fontColor=#000000;" parent="HBRwpcBnEcIffdZuwEBY-11" vertex="1">
          <mxGeometry y="42" width="170" height="20" as="geometry" />
        </mxCell>
        <mxCell id="HBRwpcBnEcIffdZuwEBY-15" value="&lt;div&gt;&lt;font color=&quot;#ffffff&quot;&gt;ViewAnomalie&lt;/font&gt;&lt;/div&gt;" style="swimlane;fontStyle=1;align=left;verticalAlign=top;childLayout=stackLayout;horizontal=1;startSize=22;horizontalStack=0;resizeParent=1;resizeParentMax=0;resizeLast=0;collapsible=1;marginBottom=0;whiteSpace=wrap;html=1;rounded=0;fillColor=#fa6800;fontColor=#000000;strokeColor=#c64600;perimeterSpacing=3;" parent="1" vertex="1">
          <mxGeometry x="629" y="270" width="170" height="62" as="geometry">
            <mxRectangle x="70" y="100" width="100" height="30" as="alternateBounds" />
          </mxGeometry>
        </mxCell>
        <mxCell id="HBRwpcBnEcIffdZuwEBY-16" value="" style="text;strokeColor=#c64600;fillColor=#fa6800;align=left;verticalAlign=top;spacingLeft=4;spacingRight=4;overflow=hidden;rotatable=0;points=[[0,0.5],[1,0.5]];portConstraint=eastwest;whiteSpace=wrap;html=1;fontColor=#000000;" parent="HBRwpcBnEcIffdZuwEBY-15" vertex="1">
          <mxGeometry y="22" width="170" height="20" as="geometry" />
        </mxCell>
        <mxCell id="HBRwpcBnEcIffdZuwEBY-17" value="" style="line;strokeWidth=1;fillColor=none;align=left;verticalAlign=middle;spacingTop=-1;spacingLeft=3;spacingRight=3;rotatable=0;labelPosition=right;points=[];portConstraint=eastwest;strokeColor=inherit;rounded=1;" parent="HBRwpcBnEcIffdZuwEBY-15" vertex="1">
          <mxGeometry y="42" width="170" as="geometry" />
        </mxCell>
        <mxCell id="HBRwpcBnEcIffdZuwEBY-18" value="&lt;div&gt;&lt;br&gt;&lt;/div&gt;&lt;div&gt;&lt;br&gt;&lt;/div&gt;" style="text;strokeColor=#c64600;fillColor=#fa6800;align=left;verticalAlign=top;spacingLeft=4;spacingRight=4;overflow=hidden;rotatable=0;points=[[0,0.5],[1,0.5]];portConstraint=eastwest;whiteSpace=wrap;html=1;fontColor=#000000;" parent="HBRwpcBnEcIffdZuwEBY-15" vertex="1">
          <mxGeometry y="42" width="170" height="20" as="geometry" />
        </mxCell>
        <mxCell id="jHX6MycOjZ-9GoSWcAdr-3" value="" style="edgeStyle=none;curved=1;rounded=0;orthogonalLoop=1;jettySize=auto;html=1;fontSize=12;startSize=8;endSize=8;exitX=0.496;exitY=0.901;exitDx=0;exitDy=0;exitPerimeter=0;entryX=0.5;entryY=0;entryDx=0;entryDy=0;" edge="1" parent="1">
          <mxGeometry relative="1" as="geometry">
            <mxPoint x="713.6600000000002" y="233.01999999999998" as="sourcePoint" />
            <mxPoint x="714.34" y="270" as="targetPoint" />
            <Array as="points">
              <mxPoint x="714.34" y="260" />
            </Array>
          </mxGeometry>
        </mxCell>
      </root>
    </mxGraphModel>
  </diagram>
</mxfile>
